# xmcd
#
# Track frame offsets:
#	150
#	16970
#	32472
#	45647
#	63767
#	74985
#	89365
#	104257
#	119525
#	134427
#	150395
#	161030
#
# Disc length: 2367 seconds
#
# Revision: 0
# Processed by: cddbd v1.5.2PL0 Copyright (c) Steve Scherf et al.
# Submitted via: EasyCDDAExtractor 10.2.0.1
#
DISCID=9e093d0c
DTITLE=La Sonora De Bruno Alberto - La Cucaracha
DYEAR=1988
DGENRE=Alternative
TTITLE0=Tira la goma
TTITLE1=La cucaracha
TTITLE2=Tu tienes que entregarmelo
TTITLE3=Yo llevo la pala
TTITLE4=No me caso
TTITLE5=Virgen, lechuza, cascoteada
TTITLE6=Gaucho rap
TTITLE7=Nada parecido
TTITLE8=Una noche con la nave
TTITLE9=La tarantrucha
TTITLE10=Yo tengo que decírtelo
TTITLE11=El play boy de la grasada total
EXTD=
EXTT0=
EXTT1=
EXTT2=
EXTT3=
EXTT4=
EXTT5=
EXTT6=
EXTT7=
EXTT8=
EXTT9=
EXTT10=
EXTT11=
PLAYORDER=
